<svg xmlns="http://www.w3.org/2000/svg" viewBox="0 0 16 16" shape-rendering="crispEdges" style="background: transparent;">
  <path d="M3,2h8v1h-8z M2,3h1v1h-1z M10,3h1v1h-1z M2,4h1v1h-1z M4,4h5v1h-5z M10,4h1v1h-1z M2,5h1v1h-1z M4,5h5v1h-5z M10,5h1v1h-1z M2,6h1v1h-1z M4,6h5v1h-5z M10,6h1v1h-1z M2,7h1v1h-1z M4,7h5v1h-5z M10,7h1v1h-1z M2,8h1v1h-1z M4,8h5v1h-5z M10,8h1v1h-1z M2,9h1v1h-1z M4,9h5v1h-5z M10,9h1v1h-1z M2,10h1v1h-1z M4,10h5v1h-5z M10,10h1v1h-1z M2,11h1v1h-1z M10,11h1v1h-1z M2,12h9v1h-9z M2,13h1v1h-1z M9,13h1v1h-1z M2,14h9v1h-9z" fill="currentColor" style="color: white;" />
</svg>
