<svg xmlns="http://www.w3.org/2000/svg" viewBox="0 0 16 16" shape-rendering="crispEdges" style="background: transparent;">
  <path d="M3,1h1v1h-1z M12,1h1v1h-1z M3,2h1v1h-1z M12,2h1v1h-1z M0,3h16v1h-16z M8,4h1v1h-1z M15,4h1v1h-1z M8,5h1v1h-1z M15,5h1v1h-1z M8,6h1v1h-1z M15,6h1v1h-1z M0,7h16v1h-16z M3,8h1v1h-1z M12,8h1v1h-1z M3,9h1v1h-1z M12,9h1v1h-1z M3,10h1v1h-1z M12,10h1v1h-1z M0,11h16v1h-16z M8,12h1v1h-1z M15,12h1v1h-1z M8,13h1v1h-1z M15,13h1v1h-1z M8,14h1v1h-1z M15,14h1v1h-1z M0,15h16v1h-16z" fill="currentColor" style="color: white;" />
</svg>
