<svg xmlns="http://www.w3.org/2000/svg" viewBox="0 0 16 16" shape-rendering="crispEdges" style="background: transparent;">
  <path d="M4,0h9v1h-9z M4,1h1v1h-1z M6,1h1v1h-1z M8,1h1v1h-1z M10,1h1v1h-1z M12,1h1v1h-1z M4,2h9v1h-9z M4,3h1v1h-1z M6,3h1v1h-1z M8,3h1v1h-1z M10,3h1v1h-1z M12,3h1v1h-1z M4,4h9v1h-9z M4,5h1v1h-1z M6,5h1v1h-1z M8,5h1v1h-1z M10,5h1v1h-1z M12,5h1v1h-1z M4,6h9v1h-9z M4,7h1v1h-1z M6,7h1v1h-1z M8,7h1v1h-1z M10,7h1v1h-1z M12,7h1v1h-1z M4,8h9v1h-9z M4,9h1v1h-1z M6,9h1v1h-1z M8,9h1v1h-1z M10,9h1v1h-1z M12,9h1v1h-1z M4,10h9v1h-9z M4,11h1v1h-1z M6,11h1v1h-1z M8,11h1v1h-1z M10,11h1v1h-1z M12,11h1v1h-1z M4,12h9v1h-9z M4,13h1v1h-1z M6,13h1v1h-1z M9,13h1v1h-1z M12,13h1v1h-1z M4,14h1v1h-1z M6,14h1v1h-1z M9,14h1v1h-1z M12,14h1v1h-1z M4,15h1v1h-1z M6,15h1v1h-1z M9,15h1v1h-1z M12,15h1v1h-1z" fill="currentColor" style="color: white;" />
</svg>
