<svg xmlns="http://www.w3.org/2000/svg" viewBox="0 0 16 16" shape-rendering="crispEdges" style="background: transparent;">
  <path d="M4,3h9v1h-9z M3,4h1v1h-1z M12,4h1v1h-1z M3,5h1v1h-1z M12,5h1v1h-1z M3,6h1v1h-1z M10,6h1v1h-1z M12,6h1v1h-1z M3,7h1v1h-1z M9,7h1v1h-1z M12,7h1v1h-1z M3,8h1v1h-1z M8,8h1v1h-1z M12,8h1v1h-1z M3,9h1v1h-1z M5,9h1v1h-1z M7,9h1v1h-1z M12,9h1v1h-1z M3,10h1v1h-1z M6,10h1v1h-1z M12,10h1v1h-1z M3,11h1v1h-1z M12,11h1v1h-1z M3,12h9v1h-9z" fill="currentColor" style="color: white;" />
</svg>
