<svg xmlns="http://www.w3.org/2000/svg" viewBox="0 0 16 16" shape-rendering="crispEdges" style="background: transparent;">
  <path d="M6,3h4v1h-4z M4,4h8v1h-8z M3,5h2v1h-2z M6,5h2v1h-2z M9,5h4v1h-4z M3,6h1v1h-1z M5,6h2v1h-2z M11,6h2v1h-2z M2,7h4v1h-4z M7,7h1v1h-1z M9,7h5v1h-5z M2,8h1v1h-1z M4,8h3v1h-3z M9,8h3v1h-3z M13,8h1v1h-1z M2,9h6v1h-6z M10,9h2v1h-2z M13,9h1v1h-1z M2,10h6v1h-6z M9,10h1v1h-1z M11,10h3v1h-3z M3,11h1v1h-1z M5,11h1v1h-1z M10,11h3v1h-3z M3,12h5v1h-5z M9,12h4v1h-4z M5,13h1v1h-1z M7,13h5v1h-5z M6,14h4v1h-4z" fill="currentColor" style="color: white;" />
</svg>
