<svg xmlns="http://www.w3.org/2000/svg" viewBox="0 0 16 16" shape-rendering="crispEdges" style="background: transparent;">
  <path d="M3,0h3v1h-3z M0,1h2v1h-2z M3,1h3v1h-3z M7,1h3v1h-3z M0,2h2v1h-2z M7,2h3v1h-3z M0,3h16v1h-16z M0,4h7v1h-7z M15,4h1v1h-1z M0,5h7v1h-7z M15,5h1v1h-1z M0,6h7v1h-7z M15,6h1v1h-1z M0,7h7v1h-7z M8,7h6v1h-6z M15,7h1v1h-1z M0,8h7v1h-7z M15,8h1v1h-1z M0,9h7v1h-7z M8,9h6v1h-6z M15,9h1v1h-1z M0,10h7v1h-7z M15,10h1v1h-1z M0,11h7v1h-7z M8,11h6v1h-6z M15,11h1v1h-1z M6,12h1v1h-1z M15,12h1v1h-1z M6,13h1v1h-1z M15,13h1v1h-1z M6,14h1v1h-1z M15,14h1v1h-1z M6,15h10v1h-10z" fill="currentColor" style="color: white;" />
</svg>
