<svg xmlns="http://www.w3.org/2000/svg" viewBox="0 0 16 16" shape-rendering="crispEdges" style="background: transparent;">
  <path d="M2,5h1v1h-1z M6,5h1v1h-1z M10,5h1v1h-1z M14,5h1v1h-1z M2,6h1v1h-1z M6,6h1v1h-1z M10,6h1v1h-1z M14,6h1v1h-1z M2,7h1v1h-1z M4,7h1v1h-1z M6,7h1v1h-1z M8,7h1v1h-1z M10,7h1v1h-1z M12,7h1v1h-1z M14,7h1v1h-1z M3,8h1v1h-1z M5,8h1v1h-1z M7,8h1v1h-1z M9,8h1v1h-1z M11,8h1v1h-1z M13,8h1v1h-1z M3,9h1v1h-1z M5,9h1v1h-1z M7,9h1v1h-1z M9,9h1v1h-1z M11,9h1v1h-1z M13,9h1v1h-1z M3,10h1v1h-1z M13,10h1v1h-1z M3,11h1v1h-1z M13,11h1v1h-1z M4,12h1v1h-1z M12,12h1v1h-1z M4,13h9v1h-9z" fill="currentColor" style="color: white;" />
</svg>
