<svg xmlns="http://www.w3.org/2000/svg" viewBox="0 0 16 16" shape-rendering="crispEdges" style="background: transparent;">
  <path d="M1,3h4v1h-4z M15,3h1v1h-1z M0,4h1v1h-1z M5,4h1v1h-1z M13,4h2v1h-2z M0,5h1v1h-1z M5,5h1v1h-1z M12,5h2v1h-2z M1,6h6v1h-6z M10,6h3v1h-3z M6,7h2v1h-2z M9,7h2v1h-2z M7,8h3v1h-3z M6,9h2v1h-2z M9,9h2v1h-2z M1,10h6v1h-6z M10,10h3v1h-3z M0,11h1v1h-1z M5,11h1v1h-1z M12,11h2v1h-2z M0,12h1v1h-1z M5,12h1v1h-1z M13,12h2v1h-2z M1,13h4v1h-4z M15,13h1v1h-1z" fill="currentColor" style="color: white;" />
</svg>
