<svg xmlns="http://www.w3.org/2000/svg" viewBox="0 0 16 16" shape-rendering="crispEdges" style="background: transparent;">
  <path d="M1,0h15v1h-15z M0,1h1v1h-1z M3,1h1v1h-1z M12,1h1v1h-1z M15,1h1v1h-1z M0,2h1v1h-1z M3,2h1v1h-1z M8,2h3v1h-3z M12,2h1v1h-1z M15,2h1v1h-1z M0,3h1v1h-1z M3,3h1v1h-1z M7,3h1v1h-1z M10,3h1v1h-1z M12,3h1v1h-1z M15,3h1v1h-1z M0,4h1v1h-1z M3,4h1v1h-1z M7,4h1v1h-1z M10,4h1v1h-1z M12,4h1v1h-1z M15,4h1v1h-1z M0,5h1v1h-1z M3,5h1v1h-1z M7,5h3v1h-3z M12,5h1v1h-1z M15,5h1v1h-1z M0,6h1v1h-1z M3,6h1v1h-1z M12,6h1v1h-1z M15,6h1v1h-1z M0,7h1v1h-1z M3,7h9v1h-9z M15,7h1v1h-1z M0,8h1v1h-1z M15,8h1v1h-1z M0,9h1v1h-1z M15,9h1v1h-1z M0,10h1v1h-1z M4,10h9v1h-9z M15,10h1v1h-1z M0,11h1v1h-1z M3,11h1v1h-1z M12,11h1v1h-1z M15,11h1v1h-1z M0,12h1v1h-1z M3,12h1v1h-1z M12,12h1v1h-1z M15,12h1v1h-1z M0,13h1v1h-1z M3,13h1v1h-1z M12,13h1v1h-1z M15,13h1v1h-1z M0,14h1v1h-1z M3,14h1v1h-1z M12,14h1v1h-1z M15,14h1v1h-1z M0,15h15v1h-15z" fill="currentColor" style="color: white;" />
</svg>
