<svg xmlns="http://www.w3.org/2000/svg" viewBox="0 0 16 16" shape-rendering="crispEdges" style="background: transparent;">
  <path d="M6,2h4v1h-4z M4,3h8v1h-8z M3,4h2v1h-2z M6,4h4v1h-4z M11,4h2v1h-2z M3,5h3v1h-3z M10,5h3v1h-3z M2,6h3v1h-3z M11,6h3v1h-3z M2,7h3v1h-3z M11,7h3v1h-3z M2,8h1v1h-1z M4,8h2v1h-2z M10,8h4v1h-4z M2,9h1v1h-1z M4,9h3v1h-3z M9,9h5v1h-5z M3,10h1v1h-1z M5,10h1v1h-1z M10,10h3v1h-3z M3,11h2v1h-2z M10,11h3v1h-3z M4,12h2v1h-2z M10,12h2v1h-2z M10,13h1v1h-1z" fill="currentColor" style="color: white;" />
</svg>
