<svg xmlns="http://www.w3.org/2000/svg" viewBox="0 0 16 16" shape-rendering="crispEdges" style="background: transparent;">
  <path d="M6,0h4v1h-4z M4,1h2v1h-2z M10,1h2v1h-2z M3,2h1v1h-1z M9,2h1v1h-1z M12,2h1v1h-1z M2,3h5v1h-5z M8,3h1v1h-1z M11,3h1v1h-1z M13,3h1v1h-1z M1,4h1v1h-1z M3,4h1v1h-1z M5,4h4v1h-4z M12,4h1v1h-1z M14,4h1v1h-1z M1,5h1v1h-1z M4,5h5v1h-5z M12,5h1v1h-1z M14,5h1v1h-1z M0,6h1v1h-1z M4,6h1v1h-1z M6,6h1v1h-1z M15,6h1v1h-1z M0,7h1v1h-1z M5,7h2v1h-2z M15,7h1v1h-1z M0,8h1v1h-1z M5,8h1v1h-1z M13,8h3v1h-3z M0,9h2v1h-2z M5,9h4v1h-4z M13,9h1v1h-1z M15,9h1v1h-1z M1,10h1v1h-1z M6,10h2v1h-2z M13,10h2v1h-2z M1,11h1v1h-1z M5,11h4v1h-4z M13,11h2v1h-2z M2,12h1v1h-1z M6,12h3v1h-3z M11,12h1v1h-1z M13,12h2v1h-2z M3,13h1v1h-1z M8,13h1v1h-1z M12,13h1v1h-1z M4,14h8v1h-8z M6,15h4v1h-4z" fill="currentColor" style="color: white;" />
</svg>
