<svg xmlns="http://www.w3.org/2000/svg" viewBox="0 0 16 16" shape-rendering="crispEdges" style="background: transparent;">
  <path d="M7,1h1v1h-1z M6,2h3v1h-3z M5,3h5v1h-5z M4,4h7v1h-7z M3,5h9v1h-9z M2,6h11v1h-11z M1,7h3v1h-3z M11,7h3v1h-3z M3,8h1v1h-1z M11,8h1v1h-1z M3,9h1v1h-1z M11,9h1v1h-1z M3,10h1v1h-1z M6,10h3v1h-3z M11,10h1v1h-1z M3,11h1v1h-1z M6,11h3v1h-3z M11,11h1v1h-1z M3,12h1v1h-1z M6,12h3v1h-3z M11,12h1v1h-1z M3,13h1v1h-1z M6,13h3v1h-3z M11,13h1v1h-1z M3,14h9v1h-9z" fill="currentColor" style="color: white;" />
</svg>
