<svg xmlns="http://www.w3.org/2000/svg" viewBox="0 0 16 16" shape-rendering="crispEdges" style="background: transparent;">
  <path d="M3,3h10v1h-10z M2,4h1v1h-1z M13,4h1v1h-1z M2,5h1v1h-1z M10,5h1v1h-1z M13,5h1v1h-1z M2,6h1v1h-1z M7,6h2v1h-2z M13,6h1v1h-1z M2,7h1v1h-1z M6,7h1v1h-1z M9,7h1v1h-1z M13,7h1v1h-1z M2,8h1v1h-1z M5,8h1v1h-1z M10,8h1v1h-1z M13,8h1v1h-1z M2,9h1v1h-1z M5,9h1v1h-1z M10,9h1v1h-1z M13,9h1v1h-1z M2,10h1v1h-1z M6,10h1v1h-1z M9,10h1v1h-1z M13,10h1v1h-1z M2,11h1v1h-1z M7,11h2v1h-2z M13,11h1v1h-1z M2,12h1v1h-1z M13,12h1v1h-1z M3,13h10v1h-10z" fill="currentColor" style="color: white;" />
</svg>
