<svg xmlns="http://www.w3.org/2000/svg" viewBox="0 0 16 16" shape-rendering="crispEdges" style="background: transparent;">
  <path d="M3,4h4v1h-4z M8,4h4v1h-4z M2,5h1v1h-1z M7,5h1v1h-1z M12,5h1v1h-1z M1,6h1v1h-1z M6,6h1v1h-1z M8,6h1v1h-1z M13,6h1v1h-1z M0,7h1v1h-1z M5,7h1v1h-1z M9,7h1v1h-1z M14,7h1v1h-1z M0,8h1v1h-1z M5,8h1v1h-1z M9,8h1v1h-1z M14,8h1v1h-1z M0,9h1v1h-1z M5,9h1v1h-1z M9,9h1v1h-1z M14,9h1v1h-1z M0,10h1v1h-1z M5,10h1v1h-1z M9,10h1v1h-1z M14,10h1v1h-1z M1,11h1v1h-1z M6,11h1v1h-1z M8,11h1v1h-1z M13,11h1v1h-1z M2,12h1v1h-1z M7,12h1v1h-1z M12,12h1v1h-1z M3,13h4v1h-4z M8,13h4v1h-4z" fill="currentColor" style="color: white;" />
</svg>
