<svg xmlns="http://www.w3.org/2000/svg" viewBox="0 0 16 16" shape-rendering="crispEdges" style="background: transparent;">
  <path d="M3,1h10v1h-10z M2,2h12v1h-12z M1,3h14v1h-14z M0,4h2v1h-2z M3,4h1v1h-1z M5,4h1v1h-1z M7,4h1v1h-1z M9,4h1v1h-1z M11,4h1v1h-1z M13,4h1v1h-1z M15,4h1v1h-1z M0,5h1v1h-1z M2,5h1v1h-1z M4,5h1v1h-1z M6,5h1v1h-1z M8,5h1v1h-1z M10,5h1v1h-1z M12,5h1v1h-1z M15,5h1v1h-1z M2,6h12v1h-12z M1,7h3v1h-3z M6,7h3v1h-3z M11,7h4v1h-4z M1,8h2v1h-2z M12,8h3v1h-3z M1,9h2v1h-2z M7,9h1v1h-1z M12,9h3v1h-3z M1,10h1v1h-1z M6,10h1v1h-1z M8,10h1v1h-1z M13,10h2v1h-2z M1,11h1v1h-1z M13,11h2v1h-2z M1,12h1v1h-1z M5,12h5v1h-5z M13,12h2v1h-2z M1,13h1v1h-1z M4,13h7v1h-7z M13,13h2v1h-2z M2,14h12v1h-12z" fill="currentColor" style="color: white;" />
</svg>
