<svg xmlns="http://www.w3.org/2000/svg" viewBox="0 0 16 16" shape-rendering="crispEdges" style="background: transparent;">
  <path d="M6,1h5v1h-5z M4,2h2v1h-2z M11,2h2v1h-2z M3,3h1v1h-1z M13,3h1v1h-1z M2,4h1v1h-1z M14,4h1v1h-1z M2,5h1v1h-1z M5,5h1v1h-1z M7,5h1v1h-1z M10,5h1v1h-1z M12,5h1v1h-1z M14,5h1v1h-1z M1,6h1v1h-1z M6,6h1v1h-1z M11,6h1v1h-1z M15,6h1v1h-1z M1,7h1v1h-1z M5,7h1v1h-1z M7,7h1v1h-1z M10,7h1v1h-1z M12,7h1v1h-1z M15,7h1v1h-1z M1,8h1v1h-1z M15,8h1v1h-1z M1,9h1v1h-1z M15,9h1v1h-1z M1,10h1v1h-1z M15,10h1v1h-1z M2,11h1v1h-1z M6,11h1v1h-1z M11,11h1v1h-1z M14,11h1v1h-1z M2,12h1v1h-1z M7,12h4v1h-4z M14,12h1v1h-1z M3,13h1v1h-1z M13,13h1v1h-1z M4,14h2v1h-2z M11,14h2v1h-2z M6,15h5v1h-5z" fill="currentColor" style="color: white;" />
</svg>
