<svg xmlns="http://www.w3.org/2000/svg" viewBox="0 0 16 16" shape-rendering="crispEdges" style="background: transparent;">
  <path d="M4,0h10v1h-10z M4,1h1v1h-1z M13,1h1v1h-1z M4,2h1v1h-1z M13,2h1v1h-1z M1,3h4v1h-4z M13,3h1v1h-1z M1,4h1v1h-1z M4,4h1v1h-1z M6,4h6v1h-6z M13,4h1v1h-1z M1,5h1v1h-1z M4,5h1v1h-1z M13,5h1v1h-1z M1,6h1v1h-1z M4,6h1v1h-1z M6,6h6v1h-6z M13,6h1v1h-1z M1,7h1v1h-1z M4,7h1v1h-1z M13,7h1v1h-1z M1,8h1v1h-1z M4,8h1v1h-1z M6,8h6v1h-6z M13,8h1v1h-1z M1,9h1v1h-1z M4,9h1v1h-1z M13,9h1v1h-1z M1,10h1v1h-1z M4,10h1v1h-1z M13,10h1v1h-1z M1,11h1v1h-1z M4,11h1v1h-1z M13,11h1v1h-1z M1,12h1v1h-1z M4,12h10v1h-10z M1,13h1v1h-1z M10,13h1v1h-1z M1,14h1v1h-1z M10,14h1v1h-1z M1,15h10v1h-10z" fill="currentColor" style="color: white;" />
</svg>
