<svg xmlns="http://www.w3.org/2000/svg" viewBox="0 0 16 16" shape-rendering="crispEdges" style="background: transparent;">
  <path d="M6,0h4v1h-4z M4,1h2v1h-2z M10,1h2v1h-2z M3,2h1v1h-1z M12,2h1v1h-1z M2,3h1v1h-1z M7,3h2v1h-2z M13,3h1v1h-1z M1,4h1v1h-1z M6,4h4v1h-4z M14,4h1v1h-1z M1,5h1v1h-1z M5,5h6v1h-6z M14,5h1v1h-1z M0,6h1v1h-1z M5,6h6v1h-6z M15,6h1v1h-1z M0,7h1v1h-1z M6,7h4v1h-4z M15,7h1v1h-1z M0,8h1v1h-1z M7,8h2v1h-2z M15,8h1v1h-1z M0,9h1v1h-1z M15,9h1v1h-1z M1,10h1v1h-1z M5,10h6v1h-6z M14,10h1v1h-1z M1,11h1v1h-1z M3,11h10v1h-10z M14,11h1v1h-1z M2,12h12v1h-12z M3,13h10v1h-10z M4,14h8v1h-8z M6,15h4v1h-4z" fill="currentColor" style="color: white;" />
</svg>
