<svg xmlns="http://www.w3.org/2000/svg" viewBox="0 0 16 16" shape-rendering="crispEdges" style="background: transparent;">
  <path d="M1,0h15v1h-15z M0,1h1v1h-1z M15,1h1v1h-1z M0,2h1v1h-1z M15,2h1v1h-1z M0,3h1v1h-1z M6,3h5v1h-5z M15,3h1v1h-1z M0,4h1v1h-1z M5,4h7v1h-7z M15,4h1v1h-1z M0,5h1v1h-1z M4,5h2v1h-2z M10,5h2v1h-2z M15,5h1v1h-1z M0,6h1v1h-1z M4,6h2v1h-2z M10,6h2v1h-2z M15,6h1v1h-1z M0,7h1v1h-1z M10,7h2v1h-2z M15,7h1v1h-1z M0,8h1v1h-1z M8,8h2v1h-2z M15,8h1v1h-1z M0,9h1v1h-1z M7,9h3v1h-3z M15,9h1v1h-1z M0,10h1v1h-1z M7,10h2v1h-2z M15,10h1v1h-1z M0,11h1v1h-1z M15,11h1v1h-1z M0,12h1v1h-1z M7,12h2v1h-2z M15,12h1v1h-1z M0,13h1v1h-1z M7,13h2v1h-2z M15,13h1v1h-1z M0,14h1v1h-1z M15,14h1v1h-1z M0,15h15v1h-15z" fill="currentColor" style="color: white;" />
</svg>
