<svg xmlns="http://www.w3.org/2000/svg" viewBox="0 0 16 16" shape-rendering="crispEdges" style="background: transparent;">
  <path d="M0,4h1v1h-1z M2,4h1v1h-1z M4,4h1v1h-1z M6,4h1v1h-1z M8,4h1v1h-1z M10,4h1v1h-1z M12,4h1v1h-1z M14,4h1v1h-1z M1,5h1v1h-1z M5,5h1v1h-1z M9,5h1v1h-1z M13,5h1v1h-1z M0,6h1v1h-1z M2,6h1v1h-1z M4,6h1v1h-1z M6,6h1v1h-1z M8,6h1v1h-1z M10,6h1v1h-1z M12,6h1v1h-1z M14,6h1v1h-1z M1,7h1v1h-1z M3,7h1v1h-1z M5,7h1v1h-1z M7,7h1v1h-1z M9,7h1v1h-1z M11,7h1v1h-1z M13,7h1v1h-1z M15,7h1v1h-1z M0,8h3v1h-3z M4,8h3v1h-3z M8,8h3v1h-3z M12,8h3v1h-3z M1,9h1v1h-1z M3,9h1v1h-1z M5,9h1v1h-1z M7,9h1v1h-1z M9,9h1v1h-1z M11,9h1v1h-1z M13,9h1v1h-1z M15,9h1v1h-1z M0,10h16v1h-16z M1,11h1v1h-1z M3,11h1v1h-1z M5,11h1v1h-1z M7,11h1v1h-1z M9,11h1v1h-1z M11,11h1v1h-1z M13,11h1v1h-1z M15,11h1v1h-1z M0,12h16v1h-16z M0,13h16v1h-16z M0,14h16v1h-16z M0,15h16v1h-16z" fill="currentColor" style="color: white;" />
</svg>
