<svg xmlns="http://www.w3.org/2000/svg" viewBox="0 0 16 16" shape-rendering="crispEdges" style="background: transparent;">
  <path d="M5,3h3v1h-3z M3,4h3v1h-3z M7,4h3v1h-3z M3,5h1v1h-1z M9,5h1v1h-1z M2,6h2v1h-2z M9,6h1v1h-1z M2,7h1v1h-1z M9,7h1v1h-1z M2,8h1v1h-1z M9,8h1v1h-1z M15,8h1v1h-1z M1,9h2v1h-2z M5,9h7v1h-7z M15,9h1v1h-1z M1,10h1v1h-1z M6,10h1v1h-1z M9,10h1v1h-1z M11,10h2v1h-2z M15,10h1v1h-1z M1,11h2v1h-2z M9,11h1v1h-1z M12,11h1v1h-1z M14,11h2v1h-2z M2,12h1v1h-1z M9,12h1v1h-1z M12,12h2v1h-2z M1,13h4v1h-4z M9,13h1v1h-1z M11,13h2v1h-2z M5,14h8v1h-8z M8,15h1v1h-1z" fill="currentColor" style="color: white;" />
</svg>
