<svg xmlns="http://www.w3.org/2000/svg" viewBox="0 0 16 16" shape-rendering="crispEdges" style="background: transparent;">
  <path d="M4,3h1v1h-1z M9,3h1v1h-1z M11,4h1v1h-1z M7,5h2v1h-2z M11,6h1v1h-1z M14,6h1v1h-1z M4,7h1v1h-1z M6,7h2v1h-2z M9,7h1v1h-1z M7,8h1v1h-1z M10,8h1v1h-1z M1,9h1v1h-1z M4,9h1v1h-1z M6,9h1v1h-1z M8,9h2v1h-2z M11,9h1v1h-1z M7,10h3v1h-3z M5,11h1v1h-1z M7,11h1v1h-1z M11,11h1v1h-1z M5,12h1v1h-1z M3,13h1v1h-1z M6,13h1v1h-1z M10,13h1v1h-1z M13,13h1v1h-1z" fill="currentColor" style="color: white;" />
</svg>
