<svg xmlns="http://www.w3.org/2000/svg" viewBox="0 0 16 16" shape-rendering="crispEdges" style="background: transparent;">
  <path d="M6,0h4v1h-4z M4,1h8v1h-8z M3,2h10v1h-10z M2,3h7v1h-7z M11,3h3v1h-3z M1,4h7v1h-7z M9,4h2v1h-2z M12,4h3v1h-3z M1,5h6v1h-6z M8,5h1v1h-1z M11,5h1v1h-1z M13,5h2v1h-2z M2,6h5v1h-5z M8,6h1v1h-1z M11,6h1v1h-1z M13,6h3v1h-3z M4,7h3v1h-3z M9,7h2v1h-2z M12,7h4v1h-4z M0,8h1v1h-1z M11,8h5v1h-5z M0,9h3v1h-3z M6,9h1v1h-1z M8,9h8v1h-8z M1,10h3v1h-3z M5,10h2v1h-2z M8,10h7v1h-7z M1,11h4v1h-4z M7,11h8v1h-8z M2,12h12v1h-12z M3,13h10v1h-10z M4,14h8v1h-8z M6,15h4v1h-4z" fill="currentColor" style="color: white;" />
</svg>
