<svg xmlns="http://www.w3.org/2000/svg" viewBox="0 0 16 16" shape-rendering="crispEdges" style="background: transparent;">
  <path d="M4,1h1v1h-1z M8,1h1v1h-1z M11,1h1v1h-1z M5,2h1v1h-1z M8,2h1v1h-1z M10,2h1v1h-1z M2,3h1v1h-1z M6,3h4v1h-4z M13,3h1v1h-1z M3,4h1v1h-1z M5,4h6v1h-6z M12,4h1v1h-1z M4,5h8v1h-8z M3,6h10v1h-10z M3,7h10v1h-10z M1,8h14v1h-14z M3,9h10v1h-10z M3,10h10v1h-10z M2,11h1v1h-1z M4,11h8v1h-8z M13,11h1v1h-1z M1,12h1v1h-1z M5,12h6v1h-6z M14,12h1v1h-1z M4,13h1v1h-1z M6,13h4v1h-4z M11,13h1v1h-1z M3,14h1v1h-1z M8,14h1v1h-1z M12,14h1v1h-1z M8,15h1v1h-1z" fill="currentColor" style="color: white;" />
</svg>
