<svg xmlns="http://www.w3.org/2000/svg" viewBox="0 0 16 16" shape-rendering="crispEdges" style="background: transparent;">
  <path d="M6,0h4v1h-4z M6,1h1v1h-1z M9,1h1v1h-1z M2,2h12v1h-12z M2,3h1v1h-1z M13,3h1v1h-1z M2,4h12v1h-12z M3,5h1v1h-1z M12,5h1v1h-1z M3,6h1v1h-1z M5,6h1v1h-1z M7,6h1v1h-1z M9,6h1v1h-1z M12,6h1v1h-1z M3,7h1v1h-1z M5,7h1v1h-1z M7,7h1v1h-1z M9,7h1v1h-1z M12,7h1v1h-1z M3,8h1v1h-1z M5,8h1v1h-1z M7,8h1v1h-1z M9,8h1v1h-1z M12,8h1v1h-1z M3,9h1v1h-1z M5,9h1v1h-1z M7,9h1v1h-1z M9,9h1v1h-1z M12,9h1v1h-1z M3,10h1v1h-1z M5,10h1v1h-1z M7,10h1v1h-1z M9,10h1v1h-1z M12,10h1v1h-1z M3,11h1v1h-1z M5,11h1v1h-1z M7,11h1v1h-1z M9,11h1v1h-1z M12,11h1v1h-1z M3,12h1v1h-1z M5,12h1v1h-1z M7,12h1v1h-1z M9,12h1v1h-1z M12,12h1v1h-1z M3,13h1v1h-1z M5,13h1v1h-1z M7,13h1v1h-1z M9,13h1v1h-1z M12,13h1v1h-1z M3,14h1v1h-1z M12,14h1v1h-1z M3,15h10v1h-10z" fill="currentColor" style="color: white;" />
</svg>
