<svg xmlns="http://www.w3.org/2000/svg" viewBox="0 0 16 16" shape-rendering="crispEdges" style="background: transparent;">
  <path d="M5,1h5v1h-5z M5,2h5v1h-5z M5,3h5v1h-5z M4,4h1v1h-1z M10,4h1v1h-1z M3,5h1v1h-1z M7,5h1v1h-1z M11,5h1v1h-1z M2,6h1v1h-1z M7,6h1v1h-1z M12,6h1v1h-1z M2,7h1v1h-1z M7,7h1v1h-1z M12,7h1v1h-1z M2,8h1v1h-1z M7,8h3v1h-3z M12,8h2v1h-2z M2,9h1v1h-1z M12,9h1v1h-1z M2,10h1v1h-1z M12,10h1v1h-1z M3,11h1v1h-1z M11,11h1v1h-1z M4,12h1v1h-1z M10,12h1v1h-1z M5,13h5v1h-5z M5,14h5v1h-5z M5,15h5v1h-5z" fill="currentColor" style="color: white;" />
</svg>
