<svg xmlns="http://www.w3.org/2000/svg" viewBox="0 0 16 16" shape-rendering="crispEdges" style="background: transparent;">
  <path d="M1,1h2v1h-2z M13,1h2v1h-2z M1,2h3v1h-3z M12,2h3v1h-3z M2,3h3v1h-3z M11,3h3v1h-3z M3,4h3v1h-3z M10,4h3v1h-3z M4,5h3v1h-3z M9,5h3v1h-3z M5,6h6v1h-6z M6,7h4v1h-4z M6,8h4v1h-4z M5,9h6v1h-6z M4,10h3v1h-3z M9,10h3v1h-3z M3,11h3v1h-3z M10,11h3v1h-3z M2,12h3v1h-3z M11,12h3v1h-3z M1,13h3v1h-3z M12,13h3v1h-3z M1,14h2v1h-2z M13,14h2v1h-2z" fill="currentColor" style="color: white;" />
</svg>
