<svg xmlns="http://www.w3.org/2000/svg" viewBox="0 0 16 16" shape-rendering="crispEdges" style="background: transparent;">
  <path d="M2,3h3v1h-3z M14,3h1v1h-1z M2,4h1v1h-1z M5,4h1v1h-1z M13,4h1v1h-1z M3,5h1v1h-1z M6,5h1v1h-1z M12,5h1v1h-1z M4,6h1v1h-1z M7,6h1v1h-1z M11,6h1v1h-1z M5,7h1v1h-1z M8,7h1v1h-1z M10,7h1v1h-1z M6,8h1v1h-1z M9,8h1v1h-1z M7,9h1v1h-1z M10,9h1v1h-1z M6,10h1v1h-1z M8,10h1v1h-1z M11,10h1v1h-1z M5,11h1v1h-1z M9,11h1v1h-1z M12,11h1v1h-1z M4,12h1v1h-1z M10,12h1v1h-1z M13,12h1v1h-1z M3,13h1v1h-1z M11,13h1v1h-1z M14,13h1v1h-1z M2,14h1v1h-1z M12,14h3v1h-3z" fill="currentColor" style="color: white;" />
</svg>
